<svg width="122" height="32" viewBox="0 0 122 32" fill="none" xmlns="http://www.w3.org/2000/svg">
<g clip-path="url(#clip0_5_2)">
<rect width="122" height="32" rx="4" fill="#333333"/>
<path d="M0 4C0 1.79086 1.79086 0 4 0H39V32H4C1.79086 32 0 30.2091 0 28V4Z" fill="#242424"/>
<path d="M52.1953 14.0291C52.1461 13.5921 51.9429 13.2536 51.5859 13.0135C51.2289 12.7704 50.7796 12.6488 50.2379 12.6488C49.8501 12.6488 49.5147 12.7103 49.2315 12.8335C48.9484 12.9535 48.7283 13.1197 48.5714 13.332C48.4175 13.5413 48.3406 13.7798 48.3406 14.0476C48.3406 14.2723 48.3929 14.4661 48.4975 14.6293C48.6052 14.7924 48.7453 14.9293 48.9176 15.0401C49.093 15.1478 49.2808 15.2386 49.4808 15.3125C49.6809 15.3833 49.8732 15.4418 50.0579 15.4879L50.9812 15.728C51.2828 15.8018 51.5921 15.9019 51.9091 16.0281C52.2261 16.1542 52.52 16.3204 52.7908 16.5266C53.0617 16.7328 53.2802 16.9883 53.4464 17.293C53.6156 17.5977 53.7003 17.9624 53.7003 18.3871C53.7003 18.9226 53.5618 19.3981 53.2848 19.8136C53.0109 20.229 52.6123 20.5568 52.0891 20.7969C51.569 21.0369 50.9396 21.157 50.201 21.157C49.4931 21.157 48.8807 21.0446 48.3636 20.82C47.8466 20.5953 47.4419 20.2768 47.1495 19.8643C46.8571 19.4489 46.6955 18.9564 46.6648 18.3871H48.0959C48.1236 18.7287 48.2344 19.0134 48.4283 19.2411C48.6252 19.4658 48.8761 19.6335 49.1808 19.7443C49.4885 19.852 49.8255 19.9059 50.1918 19.9059C50.5949 19.9059 50.9535 19.8428 51.2674 19.7166C51.5844 19.5874 51.8337 19.4089 52.0153 19.1811C52.1969 18.9503 52.2876 18.681 52.2876 18.3732C52.2876 18.0932 52.2076 17.8639 52.0476 17.6854C51.8906 17.5069 51.6767 17.3591 51.4059 17.2422C51.1381 17.1252 50.835 17.0221 50.4964 16.9329L49.3793 16.6282C48.6222 16.422 48.022 16.1188 47.5788 15.7188C47.1387 15.3187 46.9187 14.7893 46.9187 14.1307C46.9187 13.5859 47.0664 13.1104 47.3619 12.7042C47.6573 12.2979 48.0574 11.9825 48.5621 11.7578C49.0669 11.5301 49.6362 11.4162 50.2702 11.4162C50.9104 11.4162 51.4751 11.5285 51.9645 11.7532C52.4569 11.9779 52.8447 12.2872 53.1278 12.6811C53.411 13.072 53.5587 13.5213 53.571 14.0291H52.1953ZM56.6744 16.7898V21H55.2941V11.5455H56.656V15.0632H56.7437C56.9099 14.6816 57.1638 14.3784 57.5054 14.1538C57.847 13.9291 58.2933 13.8168 58.8442 13.8168C59.3305 13.8168 59.7552 13.9168 60.1183 14.1168C60.4846 14.3169 60.7677 14.6154 60.9678 15.0124C61.1709 15.4064 61.2725 15.8988 61.2725 16.4897V21H59.8921V16.6559C59.8921 16.1358 59.7583 15.7326 59.4905 15.4464C59.2227 15.1571 58.8503 15.0124 58.3733 15.0124C58.0471 15.0124 57.7547 15.0817 57.4962 15.2202C57.2407 15.3587 57.0392 15.5618 56.8914 15.8295C56.7468 16.0942 56.6744 16.4143 56.6744 16.7898ZM63.1144 21V13.9091H64.4948V21H63.1144ZM63.8115 12.815C63.5715 12.815 63.3653 12.735 63.1929 12.5749C63.0236 12.4118 62.939 12.2179 62.939 11.9933C62.939 11.7655 63.0236 11.5716 63.1929 11.4116C63.3653 11.2485 63.5715 11.1669 63.8115 11.1669C64.0516 11.1669 64.2562 11.2485 64.4255 11.4116C64.5979 11.5716 64.684 11.7655 64.684 11.9933C64.684 12.2179 64.5979 12.4118 64.4255 12.5749C64.2562 12.735 64.0516 12.815 63.8115 12.815ZM72.4178 13.9091L69.8464 21H68.3691L65.7931 13.9091H67.275L69.0708 19.3658H69.1447L70.9359 13.9091H72.4178ZM75.5755 21.157C75.1261 21.157 74.7199 21.0739 74.3567 20.9077C73.9935 20.7384 73.7058 20.4937 73.4934 20.1737C73.2842 19.8536 73.1795 19.4612 73.1795 18.9964C73.1795 18.5964 73.2565 18.267 73.4103 18.0085C73.5642 17.75 73.772 17.5453 74.0336 17.3945C74.2952 17.2437 74.5875 17.1299 74.9107 17.0529C75.2338 16.976 75.5632 16.9175 75.8986 16.8775C76.3233 16.8282 76.668 16.7882 76.9327 16.7575C77.1974 16.7236 77.3897 16.6697 77.5098 16.5959C77.6298 16.522 77.6898 16.402 77.6898 16.2358V16.2035C77.6898 15.8003 77.5759 15.4879 77.3482 15.2663C77.1235 15.0447 76.7881 14.9339 76.3418 14.9339C75.8771 14.9339 75.5108 15.037 75.2431 15.2433C74.9784 15.4464 74.7953 15.6726 74.6937 15.9219L73.3965 15.6264C73.5504 15.1955 73.775 14.8478 74.0705 14.5831C74.369 14.3153 74.7122 14.1214 75.1 14.0014C75.4877 13.8783 75.8955 13.8168 76.3233 13.8168C76.6065 13.8168 76.9065 13.8506 77.2235 13.9183C77.5436 13.983 77.8422 14.103 78.1191 14.2784C78.3992 14.4538 78.6285 14.7047 78.807 15.0309C78.9855 15.354 79.0748 15.7741 79.0748 16.2912V21H77.7267V20.0305H77.6713C77.5821 20.209 77.4482 20.3845 77.2697 20.5568C77.0912 20.7292 76.8619 20.8723 76.5819 20.9862C76.3018 21.1 75.9663 21.157 75.5755 21.157ZM75.8755 20.049C76.2572 20.049 76.5834 19.9736 76.8542 19.8228C77.1281 19.672 77.3359 19.475 77.4775 19.2319C77.6221 18.9857 77.6944 18.7225 77.6944 18.4425V17.5284C77.6452 17.5777 77.5498 17.6238 77.4082 17.6669C77.2697 17.7069 77.1112 17.7423 76.9327 17.7731C76.7542 17.8008 76.5803 17.8269 76.411 17.8516C76.2418 17.8731 76.1002 17.8916 75.9863 17.907C75.7186 17.9408 75.4739 17.9978 75.2523 18.0778C75.0338 18.1578 74.8584 18.2732 74.726 18.424C74.5968 18.5717 74.5321 18.7687 74.5321 19.0149C74.5321 19.3565 74.6583 19.6151 74.9107 19.7905C75.1631 19.9628 75.4847 20.049 75.8755 20.049ZM80.9133 21V13.9091H82.2474V15.0355H82.3213C82.4506 14.6539 82.6783 14.3538 83.0045 14.1353C83.3338 13.9137 83.7062 13.8029 84.1217 13.8029C84.2079 13.8029 84.3095 13.806 84.4264 13.8121C84.5464 13.8183 84.6403 13.826 84.708 13.8352V15.1555C84.6526 15.1402 84.5541 15.1232 84.4126 15.1048C84.271 15.0832 84.1294 15.0724 83.9878 15.0724C83.6616 15.0724 83.3708 15.1417 83.1153 15.2802C82.863 15.4156 82.6629 15.6049 82.5152 15.848C82.3675 16.0881 82.2936 16.362 82.2936 16.6697V21H80.9133ZM87.9026 21.157C87.4533 21.157 87.047 21.0739 86.6839 20.9077C86.3207 20.7384 86.0329 20.4937 85.8206 20.1737C85.6113 19.8536 85.5067 19.4612 85.5067 18.9964C85.5067 18.5964 85.5836 18.267 85.7375 18.0085C85.8914 17.75 86.0991 17.5453 86.3607 17.3945C86.6223 17.2437 86.9147 17.1299 87.2378 17.0529C87.561 16.976 87.8903 16.9175 88.2258 16.8775C88.6505 16.8282 88.9952 16.7882 89.2599 16.7575C89.5245 16.7236 89.7169 16.6697 89.8369 16.5959C89.9569 16.522 90.017 16.402 90.017 16.2358V16.2035C90.017 15.8003 89.9031 15.4879 89.6753 15.2663C89.4507 15.0447 89.1152 14.9339 88.6689 14.9339C88.2042 14.9339 87.838 15.037 87.5702 15.2433C87.3055 15.4464 87.1224 15.6726 87.0209 15.9219L85.7236 15.6264C85.8775 15.1955 86.1022 14.8478 86.3976 14.5831C86.6962 14.3153 87.0393 14.1214 87.4271 14.0014C87.8149 13.8783 88.2227 13.8168 88.6505 13.8168C88.9336 13.8168 89.2337 13.8506 89.5507 13.9183C89.8708 13.983 90.1693 14.103 90.4463 14.2784C90.7264 14.4538 90.9556 14.7047 91.1341 15.0309C91.3126 15.354 91.4019 15.7741 91.4019 16.2912V21H90.0539V20.0305H89.9985C89.9092 20.209 89.7754 20.3845 89.5969 20.5568C89.4184 20.7292 89.1891 20.8723 88.909 20.9862C88.6289 21.1 88.2935 21.157 87.9026 21.157ZM88.2027 20.049C88.5843 20.049 88.9105 19.9736 89.1814 19.8228C89.4553 19.672 89.663 19.475 89.8046 19.2319C89.9492 18.9857 90.0216 18.7225 90.0216 18.4425V17.5284C89.9723 17.5777 89.8769 17.6238 89.7354 17.6669C89.5969 17.7069 89.4384 17.7423 89.2599 17.7731C89.0814 17.8008 88.9075 17.8269 88.7382 17.8516C88.5689 17.8731 88.4273 17.8916 88.3135 17.907C88.0457 17.9408 87.801 17.9978 87.5795 18.0778C87.3609 18.1578 87.1855 18.2732 87.0532 18.424C86.9239 18.5717 86.8593 18.7687 86.8593 19.0149C86.8593 19.3565 86.9855 19.6151 87.2378 19.7905C87.4902 19.9628 87.8118 20.049 88.2027 20.049ZM93.2404 13.9091H94.6207V21.4616C94.6207 21.9356 94.5346 22.3357 94.3622 22.6619C94.1929 22.9882 93.9406 23.2359 93.6051 23.4052C93.2727 23.5745 92.8619 23.6591 92.3725 23.6591C92.3233 23.6591 92.2771 23.6591 92.234 23.6591C92.1879 23.6591 92.1402 23.6576 92.0909 23.6545V22.468C92.134 22.468 92.1725 22.468 92.2063 22.468C92.2371 22.468 92.2725 22.468 92.3125 22.468C92.6387 22.468 92.8742 22.3803 93.0188 22.2049C93.1665 22.0326 93.2404 21.7817 93.2404 21.4524V13.9091ZM93.9237 12.815C93.6836 12.815 93.4774 12.735 93.305 12.5749C93.1358 12.4118 93.0511 12.2179 93.0511 11.9933C93.0511 11.7655 93.1358 11.5716 93.305 11.4116C93.4774 11.2485 93.6836 11.1669 93.9237 11.1669C94.1637 11.1669 94.3684 11.2485 94.5376 11.4116C94.71 11.5716 94.7962 11.7655 94.7962 11.9933C94.7962 12.2179 94.71 12.4118 94.5376 12.5749C94.3684 12.735 94.1637 12.815 93.9237 12.815ZM100.855 11.5455L103.487 19.2457H103.593L106.224 11.5455H107.766L104.364 21H102.716L99.3134 11.5455H100.855Z" fill="white"/>
<path d="M15.6645 28.3134C9.47558 30.1701 9.47558 25.2189 7 24.6M24.3291 32.0268V27.2365C24.3755 26.6463 24.2958 26.053 24.0952 25.4959C23.8945 24.9389 23.5777 24.431 23.1656 24.0059C27.0522 23.5727 31.1369 22.0997 31.1369 15.3414C31.1366 13.6132 30.4719 11.9513 29.2803 10.6996C29.8445 9.18768 29.8046 7.51647 29.1689 6.03316C29.1689 6.03316 27.7083 5.59994 24.3291 7.8651C21.4921 7.09621 18.5016 7.09621 15.6645 7.8651C12.2854 5.59994 10.8248 6.03316 10.8248 6.03316C10.189 7.51647 10.1491 9.18768 10.7134 10.6996C9.51287 11.9606 8.84743 13.6375 8.85669 15.3785C8.85669 22.0873 12.9414 23.5603 16.8281 24.043C16.4208 24.4639 16.1068 24.9657 15.9063 25.5159C15.7058 26.0661 15.6235 26.6524 15.6645 27.2365V32.0268" stroke="white" stroke-width="1.8" stroke-linecap="round" stroke-linejoin="round"/>
</g>
<defs>
<clipPath id="clip0_5_2">
<rect width="122" height="32" fill="white"/>
</clipPath>
</defs>
</svg>
